<svg width="80" height="35" viewBox="0 0 80 35" fill="none" xmlns="http://www.w3.org/2000/svg">
<path d="M12.4146 15.364C12.4146 14.884 12.3906 14.308 12.3426 13.636C12.2946 12.964 12.1746 12.316 11.9826 11.692C11.8146 11.044 11.5386 10.504 11.1546 10.072C10.7706 9.64 10.2426 9.424 9.57064 9.424C8.92264 9.424 8.34664 9.64 7.84264 10.072C7.36264 10.48 6.95464 11.008 6.61864 11.656C6.28264 12.28 6.01864 12.94 5.82664 13.636C5.63464 14.308 5.49064 14.908 5.39464 15.436C5.80264 15.436 6.19864 15.448 6.58264 15.472C6.99064 15.472 7.38664 15.472 7.77064 15.472C9.33064 15.472 10.8786 15.436 12.4146 15.364ZM17.5986 23.32C17.5986 23.392 17.5746 23.5 17.5266 23.644C17.5026 23.764 17.4666 23.86 17.4186 23.932C17.2506 24.316 16.9386 24.76 16.4826 25.264C16.0266 25.744 15.6186 26.116 15.2586 26.38C13.6506 27.604 11.7906 28.216 9.67864 28.216C7.78264 28.216 6.13864 27.82 4.74664 27.028C3.35464 26.212 2.28664 25.084 1.54264 23.644C0.798641 22.204 0.426641 20.548 0.426641 18.676C0.426641 16.804 0.786641 15.112 1.50664 13.6C2.25064 12.064 3.30664 10.852 4.67464 9.964C6.06664 9.052 7.73464 8.596 9.67864 8.596C11.9106 8.596 13.6986 9.208 15.0426 10.432C16.3866 11.656 17.0586 13.408 17.0586 15.688C17.0586 16.312 16.7706 16.624 16.1946 16.624C15.1386 16.624 14.0826 16.612 13.0266 16.588C11.9706 16.564 10.9146 16.552 9.85864 16.552C9.09064 16.552 8.32264 16.552 7.55464 16.552C6.78664 16.552 6.01864 16.564 5.25064 16.588C5.17864 17.308 5.14264 18.04 5.14264 18.784C5.14264 19.456 5.22664 20.248 5.39464 21.16C5.58664 22.072 5.86264 22.96 6.22264 23.824C6.60664 24.688 7.09864 25.408 7.69864 25.984C8.29864 26.536 9.03064 26.812 9.89464 26.812C10.9746 26.812 11.8746 26.656 12.5946 26.344C13.3386 26.032 13.9986 25.588 14.5746 25.012C15.1506 24.436 15.7386 23.752 16.3386 22.96C16.4106 22.864 16.4826 22.792 16.5546 22.744C16.6506 22.672 16.7586 22.636 16.8786 22.636C17.0466 22.636 17.2026 22.708 17.3466 22.852C17.5146 22.972 17.5986 23.128 17.5986 23.32Z" fill="#EB9486"/>
<path d="M31.7798 26.272C31.7798 26.608 31.5998 26.908 31.2398 27.172C30.9038 27.412 30.4718 27.616 29.9438 27.784C29.4398 27.928 28.9238 28.036 28.3958 28.108C27.8678 28.18 27.4238 28.216 27.0638 28.216C25.2638 28.216 24.0158 27.856 23.3198 27.136C22.6238 26.392 22.2758 25.168 22.2758 23.464C22.2758 21.4 22.2878 19.336 22.3118 17.272C22.3358 15.208 22.3478 13.144 22.3478 11.08H20.6918C20.4518 11.08 20.2478 11.164 20.0798 11.332C19.9118 11.476 19.7558 11.548 19.6118 11.548C19.3718 11.548 19.2518 11.428 19.2518 11.188C19.2518 11.092 19.2998 10.912 19.3958 10.648C19.4918 10.384 19.5638 10.216 19.6118 10.144C19.6838 10 19.7558 9.916 19.8278 9.892C19.8998 9.868 20.0078 9.856 20.1518 9.856H22.3838V6.004C22.9838 5.668 23.6438 5.176 24.3638 4.528C25.0838 3.88 25.6358 3.28 26.0198 2.728C26.0918 2.608 26.1878 2.488 26.3078 2.368C26.4278 2.224 26.5718 2.152 26.7398 2.152C27.1238 2.152 27.3038 2.32 27.2798 2.656L27.1718 9.856H30.8798C31.0718 9.856 31.2398 9.904 31.3838 10C31.5518 10.072 31.6358 10.216 31.6358 10.432C31.6358 10.888 31.3838 11.116 30.8798 11.116H27.1718L27.0998 25.012C27.0998 25.396 27.1718 25.768 27.3158 26.128C27.4838 26.464 27.7958 26.632 28.2518 26.632C28.6598 26.632 29.0678 26.596 29.4758 26.524C29.9078 26.452 30.3038 26.332 30.6638 26.164C30.7838 26.116 30.8918 26.068 30.9878 26.02C31.1078 25.948 31.2278 25.912 31.3478 25.912C31.6358 25.912 31.7798 26.032 31.7798 26.272ZM47.6224 18.532C47.6224 17.74 47.5624 16.84 47.4424 15.832C47.3464 14.8 47.1304 13.804 46.7944 12.844C46.4584 11.884 45.9664 11.092 45.3184 10.468C44.6944 9.82 43.8424 9.496 42.7624 9.496C41.7784 9.496 40.9864 9.808 40.3864 10.432C39.7864 11.056 39.3184 11.836 38.9824 12.772C38.6704 13.708 38.4544 14.68 38.3344 15.688C38.2144 16.672 38.1544 17.524 38.1544 18.244C38.1544 19.036 38.2024 19.948 38.2984 20.98C38.4184 21.988 38.6464 22.972 38.9824 23.932C39.3184 24.892 39.8104 25.684 40.4584 26.308C41.1064 26.932 41.9704 27.244 43.0504 27.244C44.0584 27.244 44.8624 26.944 45.4624 26.344C46.0864 25.72 46.5544 24.952 46.8664 24.04C47.1784 23.104 47.3824 22.144 47.4784 21.16C47.5744 20.152 47.6224 19.276 47.6224 18.532ZM52.5184 18.712C52.5184 20.56 52.0984 22.204 51.2584 23.644C50.4184 25.06 49.2664 26.176 47.8024 26.992C46.3624 27.808 44.7184 28.216 42.8704 28.216C41.0224 28.216 39.3904 27.784 37.9744 26.92C36.5584 26.056 35.4424 24.892 34.6264 23.428C33.8344 21.964 33.4384 20.32 33.4384 18.496C33.4384 16.6 33.8344 14.908 34.6264 13.42C35.4184 11.908 36.5344 10.72 37.9744 9.856C39.4144 8.968 41.0944 8.524 43.0144 8.524C45.1264 8.524 46.8784 8.956 48.2704 9.82C49.6864 10.66 50.7424 11.848 51.4384 13.384C52.1584 14.896 52.5184 16.672 52.5184 18.712ZM64.0066 25.84C64.0066 26.68 63.9706 27.544 63.8986 28.432C63.8266 29.344 63.5866 30.196 63.1786 30.988C62.5786 32.188 61.6786 33.1 60.4786 33.724C59.2786 34.348 58.0186 34.66 56.6986 34.66C55.9546 34.66 55.1746 34.552 54.3586 34.336C53.5666 34.144 52.9066 33.748 52.3786 33.148C52.2106 32.956 52.0666 32.752 51.9466 32.536C51.8026 32.32 51.7306 32.092 51.7306 31.852C51.7306 31.228 52.0066 30.712 52.5586 30.304C53.1106 29.92 53.6746 29.728 54.2506 29.728C54.5866 29.728 54.7786 29.836 54.8266 30.052C54.8986 30.268 54.9466 30.508 54.9706 30.772C55.0186 31.108 55.0906 31.468 55.1866 31.852C55.3066 32.26 55.4866 32.596 55.7266 32.86C55.9906 33.148 56.3386 33.292 56.7706 33.292C57.4426 33.292 57.9466 33.076 58.2826 32.644C58.6426 32.236 58.8826 31.732 59.0026 31.132C59.1466 30.556 59.2186 30.004 59.2186 29.476C59.2186 26.548 59.2066 23.62 59.1826 20.692C59.1826 17.74 59.1826 14.8 59.1826 11.872C59.1826 11.632 59.1586 11.356 59.1106 11.044C59.0626 10.732 58.8706 10.576 58.5346 10.576C58.2226 10.576 57.8986 10.6 57.5626 10.648C57.2266 10.696 56.8906 10.72 56.5546 10.72C56.4106 10.72 56.2666 10.684 56.1226 10.612C56.0026 10.54 55.9426 10.42 55.9426 10.252C55.9426 9.964 56.0986 9.772 56.4106 9.676C56.6986 9.58 57.0106 9.52 57.3466 9.496C57.7066 9.472 58.0426 9.436 58.3546 9.388C59.1466 9.268 59.9386 9.136 60.7306 8.992C61.5226 8.824 62.3146 8.644 63.1066 8.452C63.2506 8.404 63.3826 8.38 63.5026 8.38C63.8386 8.38 64.0066 8.536 64.0066 8.848V25.84ZM64.0786 2.836C64.0786 3.58 63.8026 4.228 63.2506 4.78C62.7226 5.332 62.0746 5.608 61.3066 5.608C60.5626 5.608 59.9146 5.332 59.3626 4.78C58.8106 4.228 58.5346 3.58 58.5346 2.836C58.5346 2.068 58.8106 1.42 59.3626 0.891999C59.9146 0.339999 60.5626 0.0639992 61.3066 0.0639992C62.0746 0.0639992 62.7226 0.339999 63.2506 0.891999C63.8026 1.42 64.0786 2.068 64.0786 2.836ZM79.1224 27.568C79.1224 27.952 78.9304 28.144 78.5464 28.144C77.8504 28.144 77.1424 28.108 76.4224 28.036C75.7024 27.988 74.9824 27.964 74.2624 27.964C73.5424 27.964 72.8104 27.988 72.0664 28.036C71.3464 28.108 70.6264 28.144 69.9064 28.144C69.7384 28.144 69.6184 28.084 69.5464 27.964C69.4744 27.82 69.4384 27.688 69.4384 27.568C69.4384 27.184 69.6184 26.992 69.9784 26.992C70.2184 26.992 70.4464 27.004 70.6624 27.028C70.8784 27.052 71.0944 27.064 71.3104 27.064C71.5984 27.064 71.7784 26.968 71.8504 26.776C71.9464 26.584 71.9944 26.368 71.9944 26.128V11.836C71.9944 11.596 71.9704 11.332 71.9224 11.044C71.8744 10.732 71.6824 10.576 71.3464 10.576C71.0344 10.576 70.7104 10.6 70.3744 10.648C70.0384 10.696 69.7024 10.72 69.3664 10.72C69.2224 10.72 69.0784 10.684 68.9344 10.612C68.8144 10.54 68.7544 10.42 68.7544 10.252C68.7544 9.94 68.9104 9.736 69.2224 9.64C69.4864 9.592 69.7624 9.556 70.0504 9.532C70.3624 9.484 70.6504 9.448 70.9144 9.424C71.7544 9.304 72.5704 9.16 73.3624 8.992C74.1784 8.8 74.9944 8.608 75.8104 8.416C75.8824 8.416 75.9544 8.416 76.0264 8.416C76.0984 8.392 76.1584 8.38 76.2064 8.38C76.5664 8.38 76.7464 8.524 76.7464 8.812C76.7464 11.692 76.7344 14.584 76.7104 17.488C76.6864 20.368 76.6744 23.248 76.6744 26.128C76.6744 26.56 76.7704 26.836 76.9624 26.956C77.1544 27.052 77.3944 27.088 77.6824 27.064C77.9944 27.04 78.3064 27.028 78.6184 27.028C78.9544 27.028 79.1224 27.208 79.1224 27.568ZM76.8544 2.836C76.8544 3.58 76.5784 4.228 76.0264 4.78C75.4984 5.332 74.8504 5.608 74.0824 5.608C73.3384 5.608 72.6904 5.332 72.1384 4.78C71.5864 4.228 71.3104 3.58 71.3104 2.836C71.3104 2.068 71.5864 1.42 72.1384 0.891999C72.6904 0.339999 73.3384 0.0639992 74.0824 0.0639992C74.8504 0.0639992 75.4984 0.339999 76.0264 0.891999C76.5784 1.42 76.8544 2.068 76.8544 2.836Z" fill="#F3DE8A"/>
</svg>
